<svg preserveAspectRatio="none" width="100%" height="100%" overflow="visible" style="display: block;" viewBox="0 0 680 460" fill="none" xmlns="http://www.w3.org/2000/svg">
<g id="&#208;&#186;&#208;&#190;&#208;&#189;&#209;&#134;&#208;&#181;&#208;&#191;&#209;&#130;&#209;&#139;">
<path id="Vector" d="M626.08 156.879C634.618 156.879 640.684 165.919 644.278 184C648.023 202.081 649.895 225.834 649.895 255.26C649.895 284.686 648.023 308.439 644.278 326.52C640.684 344.601 634.618 353.642 626.08 353.642H597.323V329.711H598.222C601.966 329.711 604.363 326.875 605.411 321.202C606.609 315.53 607.208 303.299 607.208 284.509V77.1098C607.208 58.3198 606.609 46.0886 605.411 40.4162C604.363 34.7437 601.966 31.9075 598.222 31.9075H597.323V7.97688H625.182V31.9075H624.508C622.561 31.9075 620.913 32.6166 619.565 34.0347C618.367 35.0983 617.468 37.4027 616.869 40.948C616.27 44.1387 615.821 48.7476 615.521 54.7746C615.371 60.447 615.296 67.8921 615.296 77.1098V156.879H626.08ZM651.917 353.642H680V329.711H679.101C675.357 329.711 672.885 326.875 671.687 321.202C670.489 315.53 669.89 303.299 669.89 284.509V77.1098C669.89 58.3198 670.489 46.0886 671.687 40.4162C672.885 34.7437 675.357 31.9075 679.101 31.9075H680V7.97688H651.917V31.9075H652.815C656.71 31.9075 659.181 34.7437 660.229 40.4162C661.428 46.0886 662.027 58.3198 662.027 77.1098V284.509C662.027 303.299 661.428 315.53 660.229 321.202C659.181 326.875 656.71 329.711 652.815 329.711H651.917V353.642ZM626.08 327.052C631.622 327.052 635.366 320.848 637.314 308.439C639.261 295.676 640.234 277.95 640.234 255.26C640.234 232.57 639.261 215.021 637.314 202.613C635.366 189.85 631.622 183.468 626.08 183.468H615.296V284.509C615.296 302.944 615.896 314.644 617.094 319.607C618.292 324.57 620.763 327.052 624.508 327.052H626.08Z" fill="var(--fill-0, #070707)"/>
<path id="Vector_2" d="M514.335 7.97688H592.069V148.902H585.778V132.948C585.778 96.7862 584.355 70.9056 581.51 55.3063C578.814 39.7071 574.096 31.9075 567.356 31.9075C564.36 31.9075 562.189 34.3892 560.841 39.3526C559.493 43.9615 558.819 53.0019 558.819 66.474V284.509C558.819 302.944 559.642 315.175 561.29 321.202C563.087 326.875 566.532 329.711 571.624 329.711H574.096V353.642H532.308V329.711H534.779C537.326 329.711 539.423 329.179 541.07 328.116C542.718 326.698 543.991 324.393 544.889 321.202C545.938 317.657 546.612 313.048 546.911 307.376C547.361 301.349 547.585 293.726 547.585 284.509V66.474C547.585 53.0019 546.911 43.9615 545.563 39.3526C544.215 34.3892 542.044 31.9075 539.048 31.9075C532.308 31.9075 527.515 39.7071 524.67 55.3063C521.974 70.9056 520.626 96.7862 520.626 132.948V148.902H514.335V7.97688Z" fill="var(--fill-0, #070707)"/>
<path id="Vector_3" d="M486.838 77.1098C486.838 67.8921 486.688 60.447 486.389 54.7746C486.089 49.1021 485.49 44.8478 484.591 42.0116C483.693 38.8208 482.494 36.8709 480.997 36.1619C479.649 35.0983 477.851 34.5665 475.605 34.5665H459.878C457.632 34.5665 455.759 35.0983 454.262 36.1619C452.914 36.8709 451.79 38.8208 450.892 42.0116C449.993 44.8478 449.394 49.1021 449.094 54.7746C448.795 60.447 448.645 67.8921 448.645 77.1098V284.509C448.645 302.944 449.394 315.175 450.892 321.202C452.389 326.875 455.385 329.711 459.878 329.711H460.777V353.642H427.077V329.711H428.2C432.694 329.711 435.614 326.875 436.962 321.202C438.46 315.175 439.209 302.944 439.209 284.509V77.1098C439.209 67.8921 439.059 60.447 438.76 54.7746C438.46 48.7476 437.861 44.1387 436.962 40.948C436.214 37.4027 435.09 35.0983 433.592 34.0347C432.244 32.6166 430.447 31.9075 428.2 31.9075H427.077V7.97688H508.406V31.9075H507.282C505.036 31.9075 503.164 32.6166 501.666 34.0347C500.318 35.0983 499.194 37.4027 498.296 40.948C497.547 44.1387 497.023 48.7476 496.723 54.7746C496.424 60.447 496.274 67.8921 496.274 77.1098V284.509C496.274 302.944 496.948 315.175 498.296 321.202C499.794 326.875 502.789 329.711 507.282 329.711H508.406V353.642H474.706V329.711H475.605C480.098 329.711 483.094 326.875 484.591 321.202C486.089 315.175 486.838 302.944 486.838 284.509V77.1098Z" fill="var(--fill-0, #070707)"/>
<path id="Vector_4" d="M370.149 186.127C368.951 186.127 368.352 188.786 368.352 194.104V284.509C368.352 293.726 368.502 301.171 368.801 306.844C369.251 312.516 369.925 316.948 370.823 320.139C371.872 322.975 373.22 324.925 374.867 325.988C376.665 326.698 378.911 327.052 381.607 327.052H391.717C399.805 327.052 405.422 319.784 408.567 305.249C411.712 290.713 413.285 268.732 413.285 239.306V233.988H419.576V353.642H342.516V329.711H343.639C349.031 329.711 352.551 326.875 354.198 321.202C355.996 315.175 356.894 302.944 356.894 284.509V77.1098C356.894 67.8921 356.67 60.447 356.22 54.7746C355.921 48.7476 355.247 44.1387 354.198 40.948C353.3 37.4027 351.952 35.0983 350.154 34.0347C348.507 32.6166 346.335 31.9075 343.639 31.9075H342.516V7.97688H417.778V124.971H411.488V119.653C411.488 88.8093 410.065 67.0058 407.219 54.2428C404.523 41.1252 399.131 34.5665 391.043 34.5665H381.607C378.911 34.5665 376.665 35.0983 374.867 36.1619C373.22 36.8709 371.872 38.8208 370.823 42.0116C369.925 44.8478 369.251 49.1021 368.801 54.7746C368.502 60.447 368.352 67.8921 368.352 77.1098V156.879C368.352 162.197 368.951 164.856 370.149 164.856H373.519C376.665 164.856 379.211 164.146 381.158 162.728C383.105 161.31 384.678 158.474 385.876 154.22C387.224 149.611 388.197 143.052 388.797 134.543C389.545 126.035 390.145 114.867 390.594 101.04H394.862V249.942H390.594C390.145 236.116 389.545 224.948 388.797 216.439C388.197 207.931 387.224 201.549 385.876 197.295C384.678 192.686 383.105 189.672 381.158 188.254C379.211 186.836 376.665 186.127 373.519 186.127H370.149Z" fill="var(--fill-0, #070707)"/>
<path id="Vector_5" d="M339.057 460H333.89V452.023C333.89 418.698 332.767 393.881 330.52 377.572C328.274 361.619 323.78 353.642 317.04 353.642H256.156V329.711H257.055C261.548 329.711 264.544 326.875 266.041 321.202C267.539 315.175 268.288 302.944 268.288 284.509V77.1098C268.288 67.8921 268.138 60.447 267.839 54.7746C267.539 48.7476 266.94 44.1387 266.041 40.948C265.143 37.4027 263.945 35.0983 262.447 34.0347C261.099 32.6166 259.302 31.9075 257.055 31.9075H256.156V7.97688H289.631V31.9075H288.733C286.486 31.9075 284.614 32.6166 283.116 34.0347C281.768 35.0983 280.645 37.4027 279.746 40.948C278.997 44.1387 278.473 48.7476 278.173 54.7746C277.874 60.447 277.724 67.8921 277.724 77.1098V284.509C277.724 293.726 277.874 301.172 278.173 306.844C278.473 312.516 278.997 316.948 279.746 320.139C280.645 322.975 281.768 324.925 283.116 325.988C284.614 326.698 286.486 327.052 288.733 327.052H304.459C306.706 327.052 308.503 326.698 309.851 325.988C311.349 324.925 312.472 322.975 313.221 320.139C314.12 316.948 314.719 312.516 315.018 306.844C315.318 301.172 315.468 293.726 315.468 284.509V77.1098C315.468 67.8921 315.318 60.447 315.018 54.7746C314.719 48.7476 314.12 44.1387 313.221 40.948C312.472 37.4027 311.349 35.0983 309.851 34.0347C308.503 32.6166 306.706 31.9075 304.459 31.9075H303.336V7.97688H337.036V31.9075H335.912C333.666 31.9075 331.793 32.6166 330.296 34.0347C328.948 35.0983 327.824 37.4027 326.926 40.948C326.177 44.1387 325.653 48.7476 325.353 54.7746C325.053 60.447 324.904 67.8921 324.904 77.1098V284.509C324.904 293.726 325.053 301.172 325.353 306.844C325.653 312.516 326.177 316.948 326.926 320.139C327.824 322.975 328.948 324.925 330.296 325.988C331.793 326.698 333.666 327.052 335.912 327.052H339.057V460Z" fill="var(--fill-0, #070707)"/>
<path id="Vector_6" d="M170.696 329.711H171.82C176.313 329.711 179.234 326.875 180.582 321.202C182.079 315.175 182.828 302.944 182.828 284.509V77.1098C182.828 67.8921 182.678 60.447 182.379 54.7746C182.079 48.7476 181.48 44.1387 180.582 40.948C179.833 37.4027 178.709 35.0983 177.212 34.0347C175.864 32.6166 174.066 31.9075 171.82 31.9075H170.696V7.97688H204.396V31.9075H203.497C201.251 31.9075 199.378 32.6166 197.881 34.0347C196.533 35.0983 195.409 37.4027 194.511 40.948C193.612 44.1387 193.013 48.7476 192.713 54.7746C192.414 60.447 192.264 67.8921 192.264 77.1098V159.538C192.264 164.856 192.788 167.514 193.837 167.514H228.884C229.933 167.514 230.457 164.856 230.457 159.538V77.1098C230.457 67.8921 230.307 60.447 230.008 54.7746C229.708 48.7476 229.109 44.1387 228.21 40.948C227.312 37.4027 226.114 35.0983 224.616 34.0347C223.268 32.6166 221.471 31.9075 219.224 31.9075H218.325V7.97688H252.025V31.9075H250.902C248.655 31.9075 246.783 32.6166 245.285 34.0347C243.937 35.0983 242.814 37.4027 241.915 40.948C241.166 44.1387 240.642 48.7476 240.342 54.7746C240.043 60.447 239.893 67.8921 239.893 77.1098V284.509C239.893 302.944 240.567 315.175 241.915 321.202C243.413 326.875 246.408 329.711 250.902 329.711H252.025V353.642H218.325V329.711H219.224C223.717 329.711 226.713 326.875 228.21 321.202C229.708 315.175 230.457 302.944 230.457 284.509V202.081C230.457 196.763 229.933 194.104 228.884 194.104H193.837C192.788 194.104 192.264 196.763 192.264 202.081V284.509C192.264 302.944 193.013 315.175 194.511 321.202C196.009 326.875 199.004 329.711 203.497 329.711H204.396V353.642H170.696V329.711Z" fill="var(--fill-0, #070707)"/>
<path id="Vector_7" d="M152.636 180.809C152.636 126.212 150.164 86.5048 145.222 61.6879C140.279 36.5164 133.839 23.9307 125.9 23.9307C118.112 23.9307 111.672 36.5164 106.579 61.6879C101.637 86.5048 99.1654 126.212 99.1654 180.809C99.1654 235.407 101.637 275.291 106.579 300.462C111.672 325.279 118.112 337.688 125.9 337.688C133.839 337.688 140.279 325.279 145.222 300.462C150.164 275.291 152.636 235.407 152.636 180.809ZM165.666 180.809C165.666 208.817 164.618 233.988 162.521 256.324C160.574 278.659 157.803 297.626 154.208 313.225C150.614 328.825 146.345 340.879 141.402 349.387C136.609 357.541 131.442 361.619 125.9 361.619C120.359 361.619 115.117 357.541 110.174 349.387C105.381 340.879 101.187 328.825 97.5927 313.225C93.9981 297.626 91.1523 278.659 89.0555 256.324C87.1084 233.988 86.1348 208.817 86.1348 180.809C86.1348 152.802 87.1084 127.63 89.0555 105.295C91.1523 82.9595 93.9981 63.9923 97.5927 48.3931C101.187 32.7938 105.381 20.9171 110.174 12.763C115.117 4.25433 120.359 0 125.9 0C131.442 0 136.609 4.25433 141.402 12.763C146.345 20.9171 150.614 32.7938 154.208 48.3931C157.803 63.9923 160.574 82.9595 162.521 105.295C164.618 127.63 165.666 152.802 165.666 180.809Z" fill="var(--fill-0, #070707)"/>
<path id="Vector_8" d="M0 329.711H1.12332C5.91617 329.711 9.06148 326.875 10.5592 321.202C12.2068 315.175 13.0306 302.944 13.0306 284.509V77.1098C13.0306 67.8921 12.8808 60.447 12.5812 54.7746C12.2817 48.7476 11.6826 44.1387 10.7839 40.948C9.88525 37.4027 8.61215 35.0983 6.96461 34.0347C5.46684 32.6166 3.51975 31.9075 1.12332 31.9075H0V7.97688H36.171V31.9075H35.0477C32.6513 31.9075 30.6293 32.6166 28.9817 34.0347C27.484 35.0983 26.2858 37.4027 25.3871 40.948C24.4885 44.1387 23.8893 48.7476 23.5898 54.7746C23.2902 60.447 23.1405 67.8921 23.1405 77.1098V186.127L53.6949 66.474C55.9415 57.2563 57.0648 49.8112 57.0648 44.1387C57.0648 35.9846 55.4173 31.9075 52.1222 31.9075H49.2016V7.97688H79.756V31.9075H77.9587C75.1129 31.9075 72.5667 34.7437 70.3201 40.4162C68.0734 46.0886 65.9017 53.0019 63.8048 61.1561L40.889 151.029L68.9721 300.462C70.9192 310.744 72.8663 318.189 74.8133 322.798C76.9102 327.407 79.4564 329.711 82.452 329.711H83.1259V353.642H51.4482V329.711H53.6949C56.5406 329.711 57.9635 326.698 57.9635 320.671C57.9635 318.189 57.7388 315.53 57.2895 312.694C56.9899 309.503 56.5406 306.312 55.9415 303.121L33.2504 181.873L23.1405 220.694V284.509C23.1405 302.944 23.8893 315.175 25.3871 321.202C27.0347 326.875 30.2548 329.711 35.0477 329.711H36.171V353.642H0V329.711Z" fill="var(--fill-0, #070707)"/>
</g>
</svg>
