<svg preserveAspectRatio="none" width="100%" height="100%" overflow="visible" style="display: block;" viewBox="0 0 664 400" fill="none" xmlns="http://www.w3.org/2000/svg">
<g id="&#208;&#191;&#209;&#128;&#208;&#190;&#208;&#181;&#208;&#186;&#209;&#130;&#209;&#139;">
<path id="Vector" d="M603.804 173.53C613.335 173.53 620.107 183.53 624.12 203.53C628.3 223.53 630.391 249.805 630.391 282.354C630.391 314.903 628.3 341.177 624.12 361.177C620.107 381.177 613.335 391.177 603.804 391.177H571.699V364.707H572.702C576.883 364.707 579.558 361.569 580.729 355.295C582.066 349.02 582.735 335.491 582.735 314.707V85.2948C582.735 64.5105 582.066 50.9811 580.729 44.7066C579.558 38.4321 576.883 35.2948 572.702 35.2948H571.699V8.82422H602.801V35.2948H602.048C599.874 35.2948 598.035 36.0791 596.53 37.6478C595.192 38.8242 594.189 41.3732 593.52 45.2948C592.851 48.8242 592.35 53.9222 592.015 60.5889C591.848 66.8634 591.765 75.0987 591.765 85.2948V173.53H603.804ZM632.648 391.177H664V364.707H662.997C658.816 364.707 656.058 361.569 654.72 355.295C653.382 349.02 652.713 335.491 652.713 314.707V85.2948C652.713 64.5105 653.382 50.9811 654.72 44.7066C656.058 38.4321 658.816 35.2948 662.997 35.2948H664V8.82422H632.648V35.2948H633.651C637.999 35.2948 640.758 38.4321 641.928 44.7066C643.266 50.9811 643.935 64.5105 643.935 85.2948V314.707C643.935 335.491 643.266 349.02 641.928 355.295C640.758 361.569 637.999 364.707 633.651 364.707H632.648V391.177ZM603.804 361.765C609.991 361.765 614.171 354.903 616.345 341.177C618.518 327.06 619.605 307.452 619.605 282.354C619.605 257.256 618.518 237.844 616.345 224.118C614.171 210.001 609.991 202.942 603.804 202.942H591.765V314.707C591.765 335.099 592.433 348.04 593.771 353.53C595.109 359.02 597.868 361.765 602.048 361.765H603.804Z" fill="var(--fill-0, #070707)"/>
<path id="Vector_2" d="M479.05 8.82422H565.832V164.707H558.81V147.06C558.81 107.06 557.221 78.4321 554.044 61.1772C551.034 43.9223 545.767 35.2948 538.243 35.2948C534.898 35.2948 532.474 38.0399 530.969 43.5301C529.464 48.6282 528.711 58.6281 528.711 73.5301V314.707C528.711 335.099 529.631 348.628 531.47 355.295C533.477 361.569 537.323 364.707 543.008 364.707H545.767V391.177H499.115V364.707H501.874C504.717 364.707 507.058 364.118 508.897 362.942C510.736 361.373 512.157 358.824 513.161 355.295C514.331 351.373 515.084 346.275 515.418 340.001C515.92 333.334 516.171 324.903 516.171 314.707V73.5301C516.171 58.6281 515.418 48.6282 513.913 43.5301C512.408 38.0399 509.984 35.2948 506.639 35.2948C499.115 35.2948 493.764 43.9223 490.587 61.1772C487.577 78.4321 486.072 107.06 486.072 147.06V164.707H479.05V8.82422Z" fill="var(--fill-0, #070707)"/>
<path id="Vector_3" d="M381.885 364.707H383.139C388.49 364.707 392.002 361.569 393.674 355.295C395.513 348.628 396.433 335.099 396.433 314.707V85.2948C396.433 75.0987 396.265 66.8634 395.931 60.5889C395.597 53.9222 394.928 48.8242 393.925 45.2948C392.921 41.3732 391.5 38.8242 389.661 37.6478C387.988 36.0791 385.815 35.2948 383.139 35.2948H381.885V8.82422H422.267V35.2948H421.013C418.337 35.2948 416.08 36.0791 414.241 37.6478C412.569 38.8242 411.231 41.3732 410.228 45.2948C409.224 48.8242 408.556 53.9222 408.221 60.5889C407.887 66.8634 407.719 75.0987 407.719 85.2948V205.883L441.831 73.5301C444.339 63.334 445.593 55.0987 445.593 48.8242C445.593 39.8046 443.754 35.2948 440.075 35.2948H436.814V8.82422H470.925V35.2948H468.919C465.742 35.2948 462.899 38.4321 460.391 44.7066C457.883 50.9811 455.458 58.6282 453.117 67.6478L427.534 167.06L458.886 332.354C461.06 343.726 463.234 351.961 465.408 357.06C467.748 362.158 470.591 364.707 473.935 364.707H474.688V391.177H439.322V364.707H441.831C445.008 364.707 446.596 361.373 446.596 354.707C446.596 351.962 446.345 349.02 445.844 345.883C445.509 342.354 445.008 338.824 444.339 335.295L419.006 201.177L407.719 244.118V314.707C407.719 335.099 408.556 348.628 410.228 355.295C412.067 361.569 415.662 364.707 421.013 364.707H422.267V391.177H381.885V364.707Z" fill="var(--fill-0, #070707)"/>
<path id="Vector_4" d="M318.08 205.883C316.742 205.883 316.073 208.824 316.073 214.707V314.707C316.073 324.903 316.24 333.138 316.575 339.412C317.077 345.687 317.829 350.589 318.832 354.118C320.003 357.256 321.508 359.413 323.347 360.589C325.353 361.373 327.862 361.765 330.871 361.765H342.158C351.188 361.765 357.458 353.726 360.97 337.648C364.481 321.569 366.237 297.256 366.237 264.707V258.824H373.26V391.177H287.229V364.707H288.483C294.503 364.707 298.432 361.569 300.272 355.295C302.278 348.628 303.282 335.099 303.282 314.707V85.2948C303.282 75.0987 303.031 66.8634 302.529 60.5889C302.195 53.9222 301.442 48.8242 300.272 45.2948C299.268 41.3732 297.764 38.8242 295.757 37.6478C293.918 36.0791 291.493 35.2948 288.483 35.2948H287.229V8.82422H371.253V138.236H364.23V132.354C364.23 98.236 362.642 74.1183 359.465 60.0007C356.455 45.4909 350.435 38.236 341.406 38.236H330.871C327.862 38.236 325.353 38.8242 323.347 40.0007C321.508 40.785 320.003 42.9419 318.832 46.4713C317.829 49.6086 317.077 54.3144 316.575 60.5889C316.24 66.8634 316.073 75.0987 316.073 85.2948V173.53C316.073 179.412 316.742 182.354 318.08 182.354H321.842C325.354 182.354 328.196 181.569 330.37 180.001C332.544 178.432 334.299 175.295 335.637 170.589C337.142 165.491 338.229 158.236 338.898 148.824C339.734 139.412 340.403 127.06 340.904 111.765H345.67V276.471H340.904C340.403 261.177 339.734 248.824 338.898 239.412C338.229 230.001 337.142 222.942 335.637 218.236C334.299 213.138 332.544 209.805 330.37 208.236C328.196 206.667 325.354 205.883 321.842 205.883H318.08Z" fill="var(--fill-0, #070707)"/>
<path id="Vector_5" d="M266.063 200C266.063 139.608 263.304 95.6863 257.786 68.2353C252.268 40.3922 245.077 26.4706 236.215 26.4706C227.52 26.4706 220.33 40.3922 214.645 68.2353C209.127 95.6863 206.368 139.608 206.368 200C206.368 260.392 209.127 304.51 214.645 332.353C220.33 359.804 227.52 373.529 236.215 373.529C245.077 373.529 252.268 359.804 257.786 332.353C263.304 304.51 266.063 260.392 266.063 200ZM280.61 200C280.61 230.98 279.439 258.824 277.099 283.529C274.925 308.235 271.831 329.216 267.818 346.471C263.805 363.725 259.04 377.059 253.522 386.471C248.171 395.49 242.402 400 236.215 400C230.028 400 224.176 395.49 218.658 386.471C213.307 377.059 208.625 363.725 204.612 346.471C200.599 329.216 197.422 308.235 195.081 283.529C192.907 258.824 191.821 230.98 191.821 200C191.821 169.02 192.907 141.176 195.081 116.471C197.422 91.7647 200.599 70.7843 204.612 53.5294C208.625 36.2745 213.307 23.1373 218.658 14.1176C224.176 4.70588 230.028 0 236.215 0C242.402 0 248.171 4.70588 253.522 14.1176C259.04 23.1373 263.805 36.2745 267.818 53.5294C271.831 70.7843 274.925 91.7647 277.099 116.471C279.439 141.176 280.61 169.02 280.61 200Z" fill="var(--fill-0, #070707)"/>
<path id="Vector_6" d="M126.761 226.471V314.707C126.761 324.903 126.928 333.334 127.263 340.001C127.597 346.275 128.349 351.373 129.52 355.295C130.69 358.824 132.279 361.373 134.285 362.942C136.292 364.118 138.967 364.707 142.312 364.707H146.074V391.177H96.6628V364.707H97.9169C101.094 364.707 103.686 364.118 105.692 362.942C107.699 361.373 109.287 358.824 110.458 355.295C111.628 351.373 112.381 346.275 112.715 340.001C113.217 333.334 113.468 324.903 113.468 314.707V85.2948C113.468 75.0987 113.217 66.8634 112.715 60.5889C112.381 53.9222 111.628 48.8242 110.458 45.2948C109.287 41.3732 107.699 38.8242 105.692 37.6478C103.686 36.0791 101.094 35.2948 97.9169 35.2948H96.6628V8.82422H145.321C159.2 8.82422 169.233 18.8242 175.42 38.8242C181.774 58.8242 184.951 85.0987 184.951 117.648C184.951 149.805 181.774 176.079 175.42 196.471C169.233 216.471 159.2 226.471 145.321 226.471H126.761ZM142.312 38.236C139.135 38.236 136.543 38.8242 134.536 40.0007C132.53 40.785 130.941 42.9419 129.771 46.4713C128.6 49.6086 127.764 54.3144 127.263 60.5889C126.928 66.8634 126.761 75.0987 126.761 85.2948V197.06H145.321C154.518 197.06 160.705 190.197 163.882 176.471C167.226 162.354 168.898 142.746 168.898 117.648C168.898 92.5497 167.226 73.1379 163.882 59.4125C160.705 45.2948 154.518 38.236 145.321 38.236H142.312Z" fill="var(--fill-0, #070707)"/>
<path id="Vector_7" d="M66.7175 85.2948C66.7175 75.0987 66.5503 66.8634 66.2158 60.5889C65.8814 54.3144 65.2126 49.6086 64.2093 46.4713C63.206 42.9419 61.8683 40.785 60.1962 40.0007C58.6913 38.8242 56.6848 38.236 54.1766 38.236H36.6194C34.1112 38.236 32.021 38.8242 30.3489 40.0007C28.844 40.785 27.5899 42.9419 26.5867 46.4713C25.5834 49.6086 24.9145 54.3144 24.5801 60.5889C24.2457 66.8634 24.0785 75.0987 24.0785 85.2948V314.707C24.0785 335.099 24.9145 348.628 26.5867 355.295C28.2588 361.569 31.603 364.707 36.6194 364.707H37.6226V391.177H0V364.707H1.25409C6.27044 364.707 9.53107 361.569 11.036 355.295C12.7081 348.628 13.5441 335.099 13.5441 314.707V85.2948C13.5441 75.0987 13.3769 66.8634 13.0425 60.5889C12.7081 53.9222 12.0392 48.8242 11.036 45.2948C10.1999 41.3732 8.94583 38.8242 7.27371 37.6478C5.7688 36.0791 3.76226 35.2948 1.25409 35.2948H0V8.82422H90.796V35.2948H89.5419C87.0337 35.2948 84.9436 36.0791 83.2714 37.6478C81.7665 38.8242 80.5124 41.3732 79.5092 45.2948C78.6731 48.8242 78.0879 53.9222 77.7534 60.5889C77.419 66.8634 77.2518 75.0987 77.2518 85.2948V314.707C77.2518 335.099 78.0043 348.628 79.5092 355.295C81.1813 361.569 84.5255 364.707 89.5419 364.707H90.796V391.177H53.1733V364.707H54.1766C59.193 364.707 62.5372 361.569 64.2093 355.295C65.8814 348.628 66.7175 335.099 66.7175 314.707V85.2948Z" fill="var(--fill-0, #070707)"/>
</g>
</svg>
